<?xml version="1.0" encoding="UTF-8"?><svg id="a" xmlns="http://www.w3.org/2000/svg" width="385" height="105" viewBox="0 0 385 105"><defs><style>.b{fill:#ed6e00;}.c{fill:#fff;}.d{fill:#717072;}</style></defs><rect class="c" x="-18.58" y="-7.5" width="576" height="139.76"/><path class="d" d="M344.07,58.25V22.77l36.96,38.57V7.57h-7.65v35.22l-36.96-38.67v54.13h7.65ZM250.74,58.25h7.65V7.57h-7.65v50.69ZM209.24,14.76h3.45c6.52,0,11.46,1.54,14.8,4.63,3.72,3.46,5.58,7.97,5.58,13.53s-1.88,9.99-5.65,13.43c-1.84,1.66-3.9,2.88-6.17,3.64-2.28.72-5.13,1.08-8.57,1.08h-3.45V14.76ZM212.09,58.25c5.14,0,9.11-.47,11.92-1.41,3-.94,5.87-2.62,8.6-5.02,5.45-4.81,8.17-11.12,8.17-18.91s-2.62-14.04-7.85-18.81c-2.58-2.36-5.46-4.04-8.63-5.02-2.95-1.01-6.98-1.51-12.08-1.51h-10.64v50.69h10.51ZM162.71,38.75l7.88-17.23,7.52,17.23h-15.4ZM186.54,58.25h8.37l-24.19-53.87-25.08,53.87h8.24l5.65-12.31h21.7l5.32,12.31ZM118.48,7.57v50.69h22.55v-7.19h-14.9V7.57h-7.65ZM88.34,7.57v50.69h22.55v-7.19h-14.9V7.57h-7.65ZM49.46,38.75l7.88-17.23,7.52,17.23h-15.4ZM73.3,58.25h8.37L57.47,4.38l-25.08,53.87h8.24l5.65-12.31h21.7l5.32,12.31ZM12.92,14.62h2.53c7.24,0,10.87,2.62,10.87,7.85s-3.51,8.11-10.54,8.11h-2.86v-15.95ZM16.46,37.67c5.27,0,9.46-1.36,12.57-4.07,3.11-2.71,4.66-6.39,4.66-11.03,0-4.33-1.46-7.92-4.37-10.77-1.66-1.64-3.59-2.76-5.78-3.35-2.17-.59-5.37-.89-9.62-.89H5.27v50.69h7.65v-20.58h3.55Z"/><path class="b" d="M320.94,33.9c0,12.85-10.41,23.26-23.26,23.26s-23.26-10.41-23.26-23.26,10.41-23.26,23.26-23.26,23.26,10.41,23.26,23.26M327.93,33.9c0-16.71-13.54-30.25-30.25-30.25s-30.25,13.54-30.25,30.25,13.54,30.25,30.25,30.25,30.25-13.54,30.25-30.25"/><path class="d" d="M297.68,53.57c10.86,0,19.66-8.8,19.66-19.66s-8.8-19.66-19.66-19.66-19.66,8.8-19.66,19.66,8.8,19.66,19.66,19.66"/><path class="d" d="M369.26,76.41h1.3c3.36,0,5.03,1.23,5.03,3.7,0,2.64-1.72,3.96-5.17,3.96h-1.16v-7.66ZM377.67,84.48c.98-1.23,1.47-2.7,1.47-4.41,0-2.19-.78-3.95-2.34-5.28-1.42-1.2-3.72-1.8-6.91-1.8h-4.27v24.14h3.64v-9.88h.66l6.89,9.88h4.46l-7.47-10.29c1.6-.34,2.9-1.13,3.88-2.36M341.85,78.58c1.73-1.75,3.85-2.63,6.36-2.63s4.64.88,6.35,2.63c1.72,1.74,2.58,3.9,2.58,6.47s-.87,4.7-2.61,6.47c-1.74,1.75-3.88,2.63-6.41,2.63-2.34,0-4.39-.86-6.17-2.58-1.79-1.72-2.69-3.91-2.69-6.58s.87-4.68,2.6-6.41M339.68,94.33c2.48,2.16,5.28,3.24,8.39,3.24,3.52,0,6.53-1.21,9.02-3.64,2.48-2.42,3.72-5.36,3.72-8.83s-1.24-6.4-3.71-8.86c-2.46-2.46-5.41-3.69-8.85-3.69s-6.46,1.22-8.94,3.66c-2.49,2.44-3.74,5.36-3.74,8.75,0,3.87,1.36,6.99,4.1,9.38M334.08,76.41v-3.42h-14.73v3.42h5.55v20.71h3.64v-20.71h5.53ZM304.65,87.84l3.75-8.21,3.58,8.21h-7.33ZM316,97.12h3.99l-11.52-25.65-11.94,25.65h3.92l2.69-5.86h10.33l2.53,5.86ZM283.43,76.41h1.3c3.36,0,5.03,1.23,5.03,3.7,0,2.64-1.72,3.96-5.17,3.96h-1.16v-7.66ZM291.84,84.48c.98-1.23,1.47-2.7,1.47-4.41,0-2.19-.78-3.95-2.34-5.28-1.42-1.2-3.72-1.8-6.91-1.8h-4.27v24.14h3.64v-9.88h.66l6.89,9.88h4.46l-7.47-10.29c1.6-.34,2.9-1.13,3.88-2.36M274.78,72.99h-13.32v24.14h13.32v-3.42h-9.68v-8.07h9.39v-3.42h-9.39v-5.8h9.68v-3.42ZM247.05,72.99v24.14h10.74v-3.42h-7.1v-20.71h-3.64ZM242.04,72.99h-13.32v24.14h13.32v-3.42h-9.68v-8.07h9.4v-3.42h-9.4v-5.8h9.68v-3.42ZM217.62,72.52c-3.97,0-7.21,1.47-9.71,4.42-2.03,2.41-3.05,5.15-3.05,8.22,0,3.43,1.21,6.36,3.64,8.79,2.44,2.41,5.38,3.61,8.83,3.61,2.29,0,4.48-.59,6.57-1.77v-4.39c-.59.5-1.16.93-1.7,1.28-.54.35-1.06.64-1.56.84-.9.42-1.98.63-3.27.63-2.48,0-4.57-.87-6.28-2.61-1.71-1.74-2.56-3.88-2.56-6.41s.85-4.73,2.56-6.5c1.7-1.78,3.79-2.67,6.27-2.67,2.25,0,4.43.88,6.53,2.64v-4.31c-2.02-1.18-4.12-1.77-6.28-1.77M194.96,72.52c-3.97,0-7.21,1.47-9.71,4.42-2.03,2.41-3.05,5.15-3.05,8.22,0,3.43,1.21,6.36,3.64,8.79,2.44,2.41,5.38,3.61,8.83,3.61,2.29,0,4.48-.59,6.57-1.77v-4.39c-.59.5-1.16.93-1.7,1.28-.54.35-1.05.64-1.55.84-.9.42-1.98.63-3.27.63-2.48,0-4.57-.87-6.28-2.61-1.71-1.74-2.56-3.88-2.56-6.41s.85-4.73,2.56-6.5c1.7-1.78,3.79-2.67,6.27-2.67,2.25,0,4.43.88,6.53,2.64v-4.31c-2.02-1.18-4.12-1.77-6.28-1.77M165.96,87.84l3.75-8.21,3.58,8.21h-7.33ZM177.3,97.12h3.99l-11.52-25.65-11.94,25.65h3.92l2.69-5.86h10.33l2.53,5.86ZM145.48,72.99h-13.32v24.14h13.32v-3.42h-9.68v-8.07h9.4v-3.42h-9.4v-5.8h9.68v-3.42ZM121.06,72.52c-3.97,0-7.21,1.47-9.71,4.42-2.03,2.41-3.05,5.15-3.05,8.22,0,3.43,1.21,6.36,3.64,8.79,2.44,2.41,5.38,3.61,8.83,3.61,2.29,0,4.48-.59,6.57-1.77v-4.39c-.59.5-1.16.93-1.7,1.28-.54.35-1.05.64-1.55.84-.9.42-1.99.63-3.27.63-2.48,0-4.57-.87-6.28-2.61-1.71-1.74-2.56-3.88-2.56-6.41s.85-4.73,2.56-6.5c1.7-1.78,3.79-2.67,6.27-2.67,2.25,0,4.43.88,6.53,2.64v-4.31c-2.02-1.18-4.12-1.77-6.28-1.77M85.68,97.12v-16.9l17.6,18.37v-25.61h-3.64v16.77l-17.6-18.42v25.78h3.64ZM77.03,72.99h-13.32v24.14h13.32v-3.42h-9.68v-8.07h9.39v-3.42h-9.39v-5.8h9.68v-3.42ZM59.26,72.99h-12.05v24.14h3.64v-11.49h8.11v-3.42h-8.11v-5.8h8.41v-3.42ZM42.2,72.99h-13.32v24.14h13.32v-3.42h-9.68v-8.07h9.4v-3.42h-9.4v-5.8h9.68v-3.42ZM9.06,76.41h1.64c3.11,0,5.46.73,7.05,2.2,1.77,1.65,2.66,3.79,2.66,6.44s-.9,4.76-2.69,6.39c-.88.79-1.86,1.37-2.94,1.74-1.08.34-2.44.52-4.08.52h-1.64v-17.29ZM10.42,97.12c2.45,0,4.34-.22,5.67-.67,1.43-.45,2.79-1.25,4.1-2.39,2.6-2.29,3.89-5.29,3.89-9s-1.25-6.68-3.74-8.96c-1.23-1.13-2.6-1.92-4.11-2.39-1.41-.48-3.32-.72-5.75-.72h-5.06v24.14h5Z"/></svg>